# xmcd
#
# Track frame offsets:
#  195
#  17130
#  34276
#  54664
#  74565
#  87658
#  107182
#  118469
#  140235
#  158236
#
# Disc length: 2354 seconds
#
# Revision: 0
# Processed by: cddbd v1.5.1PL0 Copyright (c) Steve Scherf et al.
# Submitted via: AltoMP3_Maker 3.0
#
DISCID=9f09300a
DTITLE=Danielle Miraglia - Nothing Romantic
DYEAR=1900
DGENRE=
TTITLE0=Snow Globe
TTITLE1=Sell My Soul
TTITLE2=Moment by Moment
TTITLE3=Say One Thing
TTITLE4=Better
TTITLE5=You Don't Know Nothin'
TTITLE6=Cry
TTITLE7=Nothing Romantic
TTITLE8=The Only Way to Win
TTITLE9=The Wind
EXTD=
EXTT0=
EXTT1=
EXTT2=
EXTT3=
EXTT4=
EXTT5=
EXTT6=
EXTT7=
EXTT8=
EXTT9=
PLAYORDER=
